<?xml version="1.0" encoding="iso-8859-1"?>
<!-- Generator: Adobe Illustrator 19.0.0, SVG Export Plug-In . SVG Version: 6.00 Build 0)  -->
<svg version="1.1" id="Capa_1" xmlns="http://www.w3.org/2000/svg" xmlns:xlink="http://www.w3.org/1999/xlink" x="0px" y="0px"
	 viewBox="0 0 512 512" style="enable-background:new 0 0 512 512;" xml:space="preserve">
<path style="fill:#11A892;" d="M395.609,148.546c-10.747,15.608-11.716,11.831-29.077-1.253
	c-31.203-23.495-71.305-31.816-110.535-31.445c-130.305,1.141-118.16,62.981-139.613,32.698
	c-16.894-23.849-17.335-47.935-13.479-74.456c16.989-8.339,35.51-12.682,62.728-2.676C162.051,41.142,169.741,22.663,182.923,0
	c33.953,3.585,57.405,18.975,73.074,45.719C271.717,18.887,295.222,3.574,329.071,0c12.58,21.629,20.982,40.208,17.289,71.412
	c27.099-9.97,46.031-5.52,62.728,2.676C412.87,100.095,412.913,124.117,395.609,148.546z"/>
<path style="fill:#0F9887;" d="M395.609,148.546c-10.747,15.608-11.716,11.831-29.077-1.253
	c-31.203-23.495-71.305-31.816-110.535-31.445V45.719C271.717,18.887,295.222,3.574,329.071,0
	c12.58,21.629,20.982,40.208,17.289,71.412c27.099-9.97,46.031-5.52,62.728,2.676C412.87,100.095,412.913,124.117,395.609,148.546z"
	/>
<path style="fill:#FF475A;" d="M413.236,367.956c-26.167,34.549-66.268,52.573-82.036,87.527
	c-33.822,75.009-116.588,74.998-150.406,0c-15.772-34.963-55.854-52.957-82.036-87.527
	c-69.305-91.592-24.347-250.774,118.285-263.935c63.924-5.862,132.96-0.726,178.566,44.525
	C451.899,204.408,463.791,301.144,413.236,367.956z"/>
<path style="fill:#E5104D;" d="M413.236,367.956c-26.167,34.549-66.268,52.573-82.036,87.527
	c-17.426,38.647-48.693,56.511-75.193,56.511c-0.101,0-0.01,6.144-0.01-409.954c50.652-0.209,102.747,9.928,139.613,46.505
	C451.899,204.408,463.791,301.144,413.236,367.956z"/>
<g>
	<rect x="130.328" y="215.468" style="fill:#FFA7B8;" width="29.843" height="29.843"/>
	<rect x="204.268" y="173.028" style="fill:#FFA7B8;" width="29.843" height="29.843"/>
</g>
<g>
	<rect x="275.887" y="193.918" style="fill:#FF738E;" width="29.843" height="29.843"/>
	<rect x="338.226" y="173.028" style="fill:#FF738E;" width="29.843" height="29.843"/>
	<rect x="265.947" y="277.307" style="fill:#FF738E;" width="29.843" height="29.843"/>
	<rect x="353.146" y="247.468" style="fill:#FF738E;" width="29.843" height="29.843"/>
</g>
<rect x="193.988" y="254.598" style="fill:#FFA7B8;" width="29.843" height="29.843"/>
<rect x="305.737" y="338.487" style="fill:#FF738E;" width="29.843" height="29.843"/>
<g>
	<rect x="145.248" y="315.607" style="fill:#FFA7B8;" width="29.843" height="29.843"/>
	<rect x="213.558" y="345.447" style="fill:#FFA7B8;" width="29.843" height="29.843"/>
	<rect x="246.047" y="424.366" style="fill:#FFA7B8;" width="29.843" height="29.843"/>
</g>
<rect x="255.997" y="424.366" style="fill:#FF738E;" width="19.895" height="29.843"/>
<g>
</g>
<g>
</g>
<g>
</g>
<g>
</g>
<g>
</g>
<g>
</g>
<g>
</g>
<g>
</g>
<g>
</g>
<g>
</g>
<g>
</g>
<g>
</g>
<g>
</g>
<g>
</g>
<g>
</g>
</svg>
