<?xml version="1.0" encoding="iso-8859-1"?>
<!-- Generator: Adobe Illustrator 19.0.0, SVG Export Plug-In . SVG Version: 6.00 Build 0)  -->
<svg version="1.1" id="Capa_1" xmlns="http://www.w3.org/2000/svg" xmlns:xlink="http://www.w3.org/1999/xlink" x="0px" y="0px"
	 viewBox="0 0 512 512" style="enable-background:new 0 0 512 512;" xml:space="preserve">
<path style="fill:#0F9887;" d="M305.424,65.741l-2.844-29.866c-31.864,3.037-59.961-11.407-66.383-15.003
	c-8.86-7.724-19.931-14.634-33.798-19.908l-10.663,28.043c57.966,22.039,49.808,82.488,49.432,85.05
	c17.801,2.687,10.99,1.643,29.655,4.54c0.139-0.889,3.302-22.049-3.368-46.807C262.483,53.341,260.091,70.058,305.424,65.741z"/>
<path style="fill:#11A892;" d="M423.545,39.596c-20.197,18.051-59.979,55.382-86.593,55.382c-24.281,0-45.061-18.591-47.291-43.231
	c-2.37-26.101,16.941-49.261,43.041-51.632C357.151-2.1,404.898,28.201,423.545,39.596z"/>
<path style="fill:#0F9887;" d="M423.545,39.596c-20.197,18.051-59.979,55.382-86.593,55.382c-24.281,0-45.061-18.591-47.291-43.231
	L423.545,39.596z"/>
<path style="fill:#FFB13B;" d="M461.356,306.644C461.356,419.878,369.233,512,256,512S50.644,419.878,50.644,306.644
	c0-113.223,92.123-205.346,205.356-205.346S461.356,193.421,461.356,306.644z"/>
<path style="fill:#FF9500;" d="M461.356,306.644C461.356,419.878,369.233,512,256,512V101.298
	C369.233,101.298,461.356,193.421,461.356,306.644z"/>
<g>
	<rect x="156.994" y="407.192" style="fill:#FFDBA9;" width="30.001" height="30.001"/>
	<rect x="124.333" y="354.191" style="fill:#FFDBA9;" width="30.001" height="30.001"/>
	<rect x="186.995" y="356.851" style="fill:#FFDBA9;" width="30.001" height="30.001"/>
</g>
<g>
</g>
<g>
</g>
<g>
</g>
<g>
</g>
<g>
</g>
<g>
</g>
<g>
</g>
<g>
</g>
<g>
</g>
<g>
</g>
<g>
</g>
<g>
</g>
<g>
</g>
<g>
</g>
<g>
</g>
</svg>
